<svg xmlns="http://www.w3.org/2000/svg" width="64" height="64" viewBox="0 0 64 64">
  <g id="Group_19933" data-name="Group 19933" transform="translate(13155 7548)">
    <g id="warning" transform="translate(-13155 -7565.882)">
      <g id="Group_18939" data-name="Group 18939" transform="translate(0 20.882)">
        <path id="Path_30011" data-name="Path 30011" d="M221.514,333.382a3.289,3.289,0,0,0,0,6.578,3.29,3.29,0,0,0,0-6.578Z" transform="translate(-189.515 -292.269)" fill="#ff2313"/>
        <path id="Path_30012" data-name="Path 30012" d="M62.442,73.651a11.231,11.231,0,0,0,.026-11.367L41.866,26.6a11.351,11.351,0,0,0-19.708-.013L1.529,62.311A11.394,11.394,0,0,0,11.4,79.388H52.549A11.33,11.33,0,0,0,62.442,73.651Zm-4.473-2.579a6.217,6.217,0,0,1-5.434,3.144H11.383a6.132,6.132,0,0,1-5.368-3.079A6.225,6.225,0,0,1,6,64.863L26.631,29.157a6.2,6.2,0,0,1,10.762.013L58.009,64.876A6.143,6.143,0,0,1,57.969,71.073Z" transform="translate(0 -20.882)" fill="#ff2313"/>
        <path id="Path_30013" data-name="Path 30013" d="M220.264,157.269a3.577,3.577,0,0,0-2.539,3.592c.079,1.039.145,2.092.224,3.131.224,3.96.447,7.841.671,11.8a2.41,2.41,0,0,0,2.46,2.316,2.46,2.46,0,0,0,2.46-2.394c0-.816,0-1.566.079-2.394.145-2.539.3-5.078.447-7.617.079-1.645.224-3.289.3-4.934a4.062,4.062,0,0,0-.3-1.645A3.3,3.3,0,0,0,220.264,157.269Z" transform="translate(-189.081 -139.245)" fill="#ff2313"/>
      </g>
    </g>
    <rect id="Rectangle_6526" data-name="Rectangle 6526" width="64" height="64" transform="translate(-13155 -7548)" fill="none"/>
  </g>
</svg>
